<?xml version="1.0" encoding="UTF-8"?>
<svg width="134px" height="33px" viewBox="0 0 134 33" version="1.1" xmlns="http://www.w3.org/2000/svg" xmlns:xlink="http://www.w3.org/1999/xlink">
    <!-- Generator: Sketch 63.1 (92452) - https://sketch.com -->
    <title>Group 2</title>
    <desc>Created with Sketch.</desc>
    <defs>
        <linearGradient x1="50%" y1="0%" x2="50%" y2="100%" id="linearGradient-1">
            <stop stop-color="#80C3F3" offset="0%"></stop>
            <stop stop-color="#0652AA" offset="100%"></stop>
        </linearGradient>
    </defs>
    <g id="Logo" stroke="none" stroke-width="1" fill="none" fill-rule="evenodd">
        <g id="Group-2" transform="translate(0.000000, -2.000000)">
            <path d="M55.79,29.36 C58.4,29.36 61.04,28.43 61.79,27.89 C62,27.68 62,27.5 61.82,26.96 L61.34,25.85 C61.19,25.64 60.83,25.7 60.56,25.79 C59.63,26.03 57.77,26.51 55.79,26.51 C52.19,26.51 49.16,24.29 49.16,18.2 C49.16,12.11 52.16,9.89 55.79,9.89 C57.77,9.89 59.63,10.37 60.56,10.61 C60.86,10.7 61.19,10.76 61.34,10.55 L61.82,9.29 C62,8.84 62,8.69 61.79,8.51 C61.04,7.97 58.4,7.04 55.79,7.04 C49.79,7.04 45.2,10.7 45.2,18.2 C45.2,25.7 49.82,29.36 55.79,29.36 Z M67.67,29 C68.09,29 68.27,28.82 68.27,28.4 L68.27,20.36 C68.27,16.91 69.56,15.56 71.84,15.56 C73.55,15.56 74.6,16.58 74.6,21.26 L74.6,28.4 C74.6,28.82 74.78,29 75.2,29 L77.6,29 C78.02,29 78.2,28.82 78.2,28.4 L78.2,21.26 C78.2,15.02 75.53,13.04 72.35,13.04 C70.13,13.04 68.96,14.09 68.33,15.23 L68.27,15.23 L68.27,7.4 C68.27,6.98 68.09,6.8 67.67,6.8 L65.27,6.8 C64.85,6.8 64.67,6.98 64.67,7.4 L64.67,28.4 C64.67,28.82 64.85,29 65.27,29 L67.67,29 Z M86.54,29.36 C88.55,29.36 90.08,28.61 90.86,27.17 L90.92,27.17 L91.22,28.4 C91.31,28.82 91.4,29 91.82,29 L93.32,29 C93.74,29 93.92,28.82 93.92,28.4 L93.92,21.02 C93.92,16.73 92.6,13.01 87.41,13.01 C85.01,13.01 82.82,13.82 82.22,14.48 C81.98,14.75 82.01,14.99 82.19,15.26 L82.82,16.22 C82.91,16.34 83.03,16.46 83.6,16.28 C84.95,15.86 86.03,15.53 86.99,15.53 C89.48,15.53 90.11,17.78 90.26,19.04 L87.17,19.04 C83.75,19.04 80.9,20.06 80.9,23.93 C80.9,27.62 83.51,29.36 86.54,29.36 Z M87.38,26.84 C85.25,26.84 84.53,25.04 84.53,23.84 C84.53,22.4 85.58,21.56 87.17,21.56 L90.32,21.56 L90.32,22.43 C90.32,25.49 89.21,26.84 87.38,26.84 Z M99.59,29 C100.01,29 100.19,28.82 100.19,28.4 L100.19,22.19 L105.11,28.52 C105.35,28.85 105.65,29 106.07,29 L109.01,29 C109.43,29 109.52,28.82 109.25,28.52 L102.95,20.93 L108.92,13.88 C109.19,13.58 109.1,13.4 108.68,13.4 L106.19,13.4 C105.77,13.4 105.47,13.55 105.23,13.88 L100.19,20.24 L100.19,7.4 C100.19,6.98 100.01,6.8 99.59,6.8 L97.22,6.8 C96.8,6.8 96.62,6.98 96.62,7.4 L96.62,28.4 C96.62,28.82 96.8,29 97.22,29 L99.59,29 Z M114.23,29 C114.65,29 114.83,28.82 114.83,28.4 L114.83,19.22 C114.83,17.33 115.82,16.31 117.68,16.31 C118.25,16.31 118.91,16.64 118.91,15.86 L118.91,13.61 C118.91,13.19 118.79,13.16 118.37,13.16 C117.08,13.19 115.58,13.16 114.29,15.14 L114.23,15.14 L113.93,14 C113.75,13.61 113.75,13.4 113.33,13.4 L111.83,13.4 C111.41,13.4 111.23,13.58 111.23,14 L111.23,28.4 C111.23,28.82 111.41,29 111.83,29 L114.23,29 Z M126.05,29.36 C128.06,29.36 129.59,28.61 130.37,27.17 L130.43,27.17 L130.73,28.4 C130.82,28.82 130.91,29 131.33,29 L132.83,29 C133.25,29 133.43,28.82 133.43,28.4 L133.43,21.02 C133.43,16.73 132.11,13.01 126.92,13.01 C124.52,13.01 122.33,13.82 121.73,14.48 C121.49,14.75 121.52,14.99 121.7,15.26 L122.33,16.22 C122.42,16.34 122.54,16.46 123.11,16.28 C124.46,15.86 125.54,15.53 126.5,15.53 C128.99,15.53 129.62,17.78 129.77,19.04 L126.68,19.04 C123.26,19.04 120.41,20.06 120.41,23.93 C120.41,27.62 123.02,29.36 126.05,29.36 Z M126.89,26.84 C124.76,26.84 124.04,25.04 124.04,23.84 C124.04,22.4 125.09,21.56 126.68,21.56 L129.83,21.56 L129.83,22.43 C129.83,25.49 128.72,26.84 126.89,26.84 Z" id="Chakra" fill="#343539" fill-rule="nonzero"></path>
            <g id="Group" transform="translate(0.000000, 2.000000)">
                <path d="M15.8334999,13.2473442 L30.332976,22.4752929 C30.6404876,22.6710035 30.7311202,23.0789457 30.5354096,23.3864573 C30.4842645,23.4668195 30.4163298,23.5351583 30.3362724,23.5867792 L15.8368226,32.9360069 C15.6175846,33.0773713 15.3356528,33.0763408 15.117454,32.9333776 L0.848095221,23.5841329 C0.543201974,23.3843677 0.457978868,22.9752612 0.657744086,22.6703679 C0.708170954,22.5934035 0.774133627,22.5278335 0.851397737,22.477867 L15.1207301,13.2499354 C15.3373887,13.109823 15.6158282,13.1088107 15.8334999,13.2473442 Z" id="Rectangle" fill="url(#linearGradient-1)"></path>
                <path d="M16.353087,5.0580267 L29.0687249,13.1506814 C29.8235261,13.631062 30.045988,14.6323747 29.5656074,15.3871759 C29.4400692,15.5844286 29.2733205,15.7521693 29.0768159,15.8788753 L16.3612428,24.0778614 C15.823113,24.4248468 15.1310985,24.4223175 14.5955197,24.0714076 L2.08168827,15.8723797 C1.33331394,15.3820469 1.12412995,14.3778763 1.61446276,13.629502 C1.7382378,13.4405893 1.90014618,13.2796448 2.08979444,13.1569998 L14.6035611,5.064387 C15.1353596,4.72047459 15.818802,4.71798998 16.353087,5.0580267 Z" id="Rectangle" fill="#FFFFFF"></path>
                <path d="M15.8334999,0.227344212 L30.332976,9.45529285 C30.6404876,9.65100346 30.7311202,10.0589457 30.5354096,10.3664573 C30.4842645,10.4468195 30.4163298,10.5151583 30.3362724,10.5667792 L15.8368226,19.9160069 C15.6175846,20.0573713 15.3356528,20.0563408 15.117454,19.9133776 L0.848095221,10.5641329 C0.543201974,10.3643677 0.457978868,9.95526116 0.657744086,9.65036791 C0.708170954,9.5734035 0.774133627,9.50783349 0.851397737,9.45786704 L15.1207301,0.229935443 C15.3373887,0.0898229816 15.6158282,0.0888107317 15.8334999,0.227344212 Z" id="Rectangle" fill="url(#linearGradient-1)"></path>
            </g>
        </g>
    </g>
</svg>