<?xml version="1.0" encoding="UTF-8"?>
<svg width="134px" height="33px" viewBox="0 0 134 33" version="1.1" xmlns="http://www.w3.org/2000/svg" xmlns:xlink="http://www.w3.org/1999/xlink">
    <!-- Generator: Sketch 63.1 (92452) - https://sketch.com -->
    <title>Group 2</title>
    <desc>Created with Sketch.</desc>
    <defs>
        <linearGradient x1="50%" y1="0%" x2="50%" y2="100%" id="linearGradient-1">
            <stop stop-color="#80C3F3" offset="0%"></stop>
            <stop stop-color="#0652AA" offset="100%"></stop>
        </linearGradient>
    </defs>
    <g id="Logo" stroke="none" stroke-width="1" fill="none" fill-rule="evenodd">
        <g id="01-Productly" transform="translate(-145.000000, -112.000000)">
            <g id="Group-2" transform="translate(145.000000, 110.000000)">
                <text id="Chakra" font-family="Designosaur" font-size="30" font-weight="normal" fill="#343539">
                    <tspan x="44" y="29">Chakra</tspan>
                </text>
                <g id="Group" transform="translate(0.000000, 2.000000)">
                    <path d="M15.8334999,13.2473442 L30.332976,22.4752929 C30.6404876,22.6710035 30.7311202,23.0789457 30.5354096,23.3864573 C30.4842645,23.4668195 30.4163298,23.5351583 30.3362724,23.5867792 L15.8368226,32.9360069 C15.6175846,33.0773713 15.3356528,33.0763408 15.117454,32.9333776 L0.848095221,23.5841329 C0.543201974,23.3843677 0.457978868,22.9752612 0.657744086,22.6703679 C0.708170954,22.5934035 0.774133627,22.5278335 0.851397737,22.477867 L15.1207301,13.2499354 C15.3373887,13.109823 15.6158282,13.1088107 15.8334999,13.2473442 Z" id="Rectangle" fill="url(#linearGradient-1)"></path>
                    <path d="M16.353087,5.0580267 L29.0687249,13.1506814 C29.8235261,13.631062 30.045988,14.6323747 29.5656074,15.3871759 C29.4400692,15.5844286 29.2733205,15.7521693 29.0768159,15.8788753 L16.3612428,24.0778614 C15.823113,24.4248468 15.1310985,24.4223175 14.5955197,24.0714076 L2.08168827,15.8723797 C1.33331394,15.3820469 1.12412995,14.3778763 1.61446276,13.629502 C1.7382378,13.4405893 1.90014618,13.2796448 2.08979444,13.1569998 L14.6035611,5.064387 C15.1353596,4.72047459 15.818802,4.71798998 16.353087,5.0580267 Z" id="Rectangle" fill="#FFFFFF"></path>
                    <path d="M15.8334999,0.227344212 L30.332976,9.45529285 C30.6404876,9.65100346 30.7311202,10.0589457 30.5354096,10.3664573 C30.4842645,10.4468195 30.4163298,10.5151583 30.3362724,10.5667792 L15.8368226,19.9160069 C15.6175846,20.0573713 15.3356528,20.0563408 15.117454,19.9133776 L0.848095221,10.5641329 C0.543201974,10.3643677 0.457978868,9.95526116 0.657744086,9.65036791 C0.708170954,9.5734035 0.774133627,9.50783349 0.851397737,9.45786704 L15.1207301,0.229935443 C15.3373887,0.0898229816 15.6158282,0.0888107317 15.8334999,0.227344212 Z" id="Rectangle" fill="url(#linearGradient-1)"></path>
                </g>
            </g>
        </g>
    </g>
</svg>